<svg preserveAspectRatio="none" width="100%" height="100%" overflow="visible" style="display: block;" viewBox="0 0 16 16" fill="none" xmlns="http://www.w3.org/2000/svg">
<g id="Icon" clip-path="url(#clip0_0_17)">
<path id="Vector" d="M1.99466 10.8947C2.09269 11.1419 2.11451 11.4129 2.05733 11.6727L1.34733 13.866C1.32445 13.9772 1.33037 14.0925 1.36451 14.2008C1.39866 14.3091 1.45991 14.4069 1.54244 14.4848C1.62498 14.5628 1.72607 14.6185 1.83613 14.6464C1.94619 14.6744 2.06157 14.6738 2.17133 14.6447L4.44666 13.9793C4.69181 13.9307 4.94568 13.952 5.17933 14.0407C6.60292 14.7055 8.21558 14.8461 9.73276 14.4378C11.25 14.0295 12.5742 13.0984 13.4718 11.8089C14.3694 10.5194 14.7827 8.95427 14.6389 7.3897C14.495 5.82513 13.8031 4.36165 12.6854 3.25746C11.5676 2.15328 10.0958 1.47936 8.52959 1.3546C6.96337 1.22984 5.40342 1.66225 4.12496 2.57556C2.8465 3.48886 1.93168 4.82436 1.54193 6.34642C1.15217 7.86849 1.31251 9.4793 1.99466 10.8947Z" stroke="var(--stroke-0, #0A0A0A)" stroke-width="1.33333" stroke-linecap="round" stroke-linejoin="round"/>
</g>
<defs>
<clipPath id="clip0_0_17">
<rect width="16" height="16" fill="white"/>
</clipPath>
</defs>
</svg>
