<svg preserveAspectRatio="none" width="100%" height="100%" overflow="visible" style="display: block;" viewBox="0 0 18 18" fill="none" xmlns="http://www.w3.org/2000/svg">
<g id="Icon">
<path id="Vector" d="M6.5625 2.1875H3.64583C2.84042 2.1875 2.1875 2.84042 2.1875 3.64583V6.5625C2.1875 7.36792 2.84042 8.02083 3.64583 8.02083H6.5625C7.36792 8.02083 8.02083 7.36792 8.02083 6.5625V3.64583C8.02083 2.84042 7.36792 2.1875 6.5625 2.1875Z" stroke="var(--stroke-0, #0A0A0A)" stroke-width="1.45833" stroke-linecap="round" stroke-linejoin="round"/>
<path id="Vector_2" d="M5.10417 8.02083V10.9375C5.10417 11.3243 5.25781 11.6952 5.5313 11.9687C5.80479 12.2422 6.17573 12.3958 6.5625 12.3958H9.47917" stroke="var(--stroke-0, #0A0A0A)" stroke-width="1.45833" stroke-linecap="round" stroke-linejoin="round"/>
<path id="Vector_3" d="M13.8542 9.47917H10.9375C10.1321 9.47917 9.47917 10.1321 9.47917 10.9375V13.8542C9.47917 14.6596 10.1321 15.3125 10.9375 15.3125H13.8542C14.6596 15.3125 15.3125 14.6596 15.3125 13.8542V10.9375C15.3125 10.1321 14.6596 9.47917 13.8542 9.47917Z" stroke="var(--stroke-0, #0A0A0A)" stroke-width="1.45833" stroke-linecap="round" stroke-linejoin="round"/>
</g>
</svg>
