<svg preserveAspectRatio="none" width="100%" height="100%" overflow="visible" style="display: block;" viewBox="0 0 18 18" fill="none" xmlns="http://www.w3.org/2000/svg">
<g id="Icon">
<path id="Vector" d="M14.5833 9.47916C14.5833 13.125 12.0313 14.9479 8.99792 16.0052C8.83908 16.059 8.66654 16.0565 8.50938 15.9979C5.46875 14.9479 2.91667 13.125 2.91667 9.47916V4.37499C2.91667 4.18161 2.99349 3.99614 3.13023 3.8594C3.26698 3.72265 3.45245 3.64583 3.64583 3.64583C5.10417 3.64583 6.92708 2.77083 8.19583 1.66249C8.35031 1.53051 8.54682 1.458 8.75 1.458C8.95318 1.458 9.14969 1.53051 9.30417 1.66249C10.5802 2.77812 12.3958 3.64583 13.8542 3.64583C14.0476 3.64583 14.233 3.72265 14.3698 3.8594C14.5065 3.99614 14.5833 4.18161 14.5833 4.37499V9.47916Z" stroke="var(--stroke-0, #0A0A0A)" stroke-width="1.45833" stroke-linecap="round" stroke-linejoin="round"/>
</g>
</svg>
