<svg preserveAspectRatio="none" width="100%" height="100%" overflow="visible" style="display: block;" viewBox="0 0 18 18" fill="none" xmlns="http://www.w3.org/2000/svg">
<g id="Icon">
<path id="Vector" d="M7.05177 3.01583C7.09195 2.59316 7.28826 2.20066 7.60237 1.91499C7.91647 1.62933 8.32579 1.47104 8.75036 1.47104C9.17494 1.47104 9.58426 1.62933 9.89836 1.91499C10.2125 2.20066 10.4088 2.59316 10.449 3.01583C10.4731 3.28887 10.5627 3.55208 10.7101 3.78316C10.8575 4.01425 11.0584 4.20642 11.2959 4.34341C11.5333 4.4804 11.8002 4.55817 12.0741 4.57014C12.3479 4.58211 12.6206 4.52793 12.8691 4.41219C13.2549 4.23702 13.6921 4.21168 14.0955 4.34108C14.499 4.47049 14.8399 4.74538 15.0518 5.11226C15.2638 5.47915 15.3317 5.91177 15.2422 6.32594C15.1528 6.7401 14.9125 7.10618 14.568 7.35292C14.3437 7.5103 14.1606 7.7194 14.0342 7.96252C13.9078 8.20563 13.8418 8.47562 13.8418 8.74964C13.8418 9.02365 13.9078 9.29364 14.0342 9.53675C14.1606 9.77987 14.3437 9.98897 14.568 10.1464C14.9125 10.3931 15.1528 10.7592 15.2422 11.1733C15.3317 11.5875 15.2638 12.0201 15.0518 12.387C14.8399 12.7539 14.499 13.0288 14.0955 13.1582C13.6921 13.2876 13.2549 13.2622 12.8691 13.0871C12.6206 12.9713 12.3479 12.9172 12.0741 12.9291C11.8002 12.9411 11.5333 13.0189 11.2959 13.1559C11.0584 13.2928 10.8575 13.485 10.7101 13.7161C10.5627 13.9472 10.4731 14.2104 10.449 14.4834C10.4088 14.9061 10.2125 15.2986 9.89836 15.5843C9.58426 15.8699 9.17494 16.0282 8.75036 16.0282C8.32579 16.0282 7.91647 15.8699 7.60237 15.5843C7.28826 15.2986 7.09195 14.9061 7.05177 14.4834C7.02767 14.2103 6.93809 13.947 6.79063 13.7158C6.64317 13.4847 6.44217 13.2924 6.20465 13.1554C5.96713 13.0184 5.70009 12.9407 5.42615 12.9288C5.15221 12.9169 4.87944 12.9712 4.63094 13.0871C4.24513 13.2622 3.80795 13.2876 3.40448 13.1582C3.00101 13.0288 2.66013 12.7539 2.44816 12.387C2.2362 12.0201 2.16833 11.5875 2.25776 11.1733C2.34719 10.7592 2.58752 10.3931 2.93198 10.1464C3.15628 9.98897 3.33939 9.77987 3.46579 9.53675C3.5922 9.29364 3.6582 9.02365 3.6582 8.74964C3.6582 8.47562 3.5922 8.20563 3.46579 7.96252C3.33939 7.7194 3.15628 7.5103 2.93198 7.35292C2.588 7.10605 2.3481 6.74012 2.25889 6.32624C2.16967 5.91235 2.23753 5.48008 2.44926 5.11344C2.66099 4.74679 3.00148 4.47196 3.40454 4.34236C3.80761 4.21276 4.24447 4.23765 4.63021 4.41219C4.87868 4.52793 5.15137 4.58211 5.42522 4.57014C5.69906 4.55817 5.96599 4.4804 6.20341 4.34341C6.44083 4.20642 6.64175 4.01425 6.78917 3.78316C6.93659 3.55208 7.02616 3.28887 7.05031 3.01583" stroke="var(--stroke-0, #0A0A0A)" stroke-width="1.45833" stroke-linecap="round" stroke-linejoin="round"/>
<path id="Vector_2" d="M8.75 10.9375C9.95812 10.9375 10.9375 9.95812 10.9375 8.75C10.9375 7.54188 9.95812 6.5625 8.75 6.5625C7.54188 6.5625 6.5625 7.54188 6.5625 8.75C6.5625 9.95812 7.54188 10.9375 8.75 10.9375Z" stroke="var(--stroke-0, #0A0A0A)" stroke-width="1.45833" stroke-linecap="round" stroke-linejoin="round"/>
</g>
</svg>
