<svg preserveAspectRatio="none" width="100%" height="100%" overflow="visible" style="display: block;" viewBox="0 0 18 18" fill="none" xmlns="http://www.w3.org/2000/svg">
<g id="Icon">
<path id="Vector" d="M4.375 16.0417C3.98823 16.0417 3.61729 15.888 3.3438 15.6145C3.07031 15.341 2.91667 14.9701 2.91667 14.5833V2.91667C2.91667 2.52989 3.07031 2.15896 3.3438 1.88547C3.61729 1.61198 3.98823 1.45834 4.375 1.45834H10.2083C10.4392 1.45796 10.6678 1.50325 10.881 1.5916C11.0943 1.67996 11.2879 1.80962 11.4508 1.97313L14.0671 4.58938C14.231 4.75235 14.3611 4.94619 14.4497 5.1597C14.5383 5.37322 14.5837 5.60217 14.5833 5.83334V14.5833C14.5833 14.9701 14.4297 15.341 14.1562 15.6145C13.8827 15.888 13.5118 16.0417 13.125 16.0417H4.375Z" stroke="var(--stroke-0, #0A0A0A)" stroke-width="1.45833" stroke-linecap="round" stroke-linejoin="round"/>
<path id="Vector_2" d="M10.2083 1.45833V5.10417C10.2083 5.29755 10.2852 5.48302 10.4219 5.61977C10.5586 5.75651 10.7441 5.83333 10.9375 5.83333H14.5833" stroke="var(--stroke-0, #0A0A0A)" stroke-width="1.45833" stroke-linecap="round" stroke-linejoin="round"/>
<path id="Vector_3" d="M7.29167 6.5625H5.83333" stroke="var(--stroke-0, #0A0A0A)" stroke-width="1.45833" stroke-linecap="round" stroke-linejoin="round"/>
<path id="Vector_4" d="M11.6667 9.47917H5.83333" stroke="var(--stroke-0, #0A0A0A)" stroke-width="1.45833" stroke-linecap="round" stroke-linejoin="round"/>
<path id="Vector_5" d="M11.6667 12.3958H5.83333" stroke="var(--stroke-0, #0A0A0A)" stroke-width="1.45833" stroke-linecap="round" stroke-linejoin="round"/>
</g>
</svg>
